<svg width="64" height="64" viewBox="0 0 16 16" version="1.1" id="svg5" xmlns="http://www.w3.org/2000/svg"><defs id="defs2"><path id="rect236" d="M71.087 277.05h1096.684v589.514H71.087z"/></defs><g id="layer1" transform="translate(-90.026 -117.364)"><path style="opacity:1;fill:#f9f9f9;fill-opacity:1;stroke:#ddd;stroke-width:.542473px;stroke-linecap:square;stroke-linejoin:round;stroke-dasharray:none;stroke-opacity:1;paint-order:markers fill stroke" id="rect1529" d="M90.878 118.216h14.296v14.296H90.878z"/><g aria-label="o" transform="matrix(.26458 0 0 .26458 -65.865 13.25)" id="text234" style="letter-spacing:0;word-spacing:0;white-space:pre;shape-inside:url(#rect236);font-size:85.3333px;line-height:1;display:inline"><path d="M640.652 423.698c0-11.047-9.741-20.266-21.222-20.266-11.481 0-21.223 9.22-21.223 20.266 0 11.133 9.742 20.352 21.223 20.352 11.48 0 21.222-9.22 21.222-20.352zm-7.132 0c0 7.915-4.088 16.96-14.09 16.96-10.003 0-14.09-9.045-14.09-16.96 0-7.915 4.087-16.961 14.09-16.961 10.002 0 14.09 9.046 14.09 16.96z" style="-inkscape-font-specification:MrsEavesFractions;text-align:center;text-anchor:middle;stroke-width:1.27849px;font-family:MrsEavesFractions;font-size:68.0315px" id="path1603"/></g></g></svg>