<svg xmlns="http://www.w3.org/2000/svg" id="svg5" width="64" height="64" version="1.1" viewBox="0 0 16 16"><defs id="defs2"><path id="rect236" d="M71.087 277.05h1096.684v589.514H71.087z"/></defs><g id="layer1" transform="translate(-90.026 -117.364)"><path id="rect1529" d="M90.878 118.216h14.296v14.296H90.878z" style="opacity:1;fill:#f9f9f9;fill-opacity:1;stroke:#ddd;stroke-width:.542473px;stroke-linecap:square;stroke-linejoin:round;stroke-dasharray:none;stroke-opacity:1;paint-order:markers fill stroke"/><g id="text234" aria-label="o" style="letter-spacing:0;word-spacing:0;white-space:pre;shape-inside:url(#rect236);font-size:85.3333px;line-height:1;display:inline" transform="matrix(.26458 0 0 .26458 -65.865 13.25)"><path id="path1603" d="M640.652 423.698c0-11.047-9.741-20.266-21.222-20.266s-21.223 9.22-21.223 20.266c0 11.133 9.742 20.352 21.223 20.352s21.222-9.22 21.222-20.352m-7.132 0c0 7.915-4.088 16.96-14.09 16.96-10.003 0-14.09-9.045-14.09-16.96s4.087-16.961 14.09-16.961 14.09 9.046 14.09 16.96" style="-inkscape-font-specification:MrsEavesFractions;text-align:center;text-anchor:middle;stroke-width:1.27849px;font-family:MrsEavesFractions;font-size:68.0315px"/></g></g></svg>